<?xml version="1.0" encoding="us-ascii" standalone="no"?><svg xmlns="http://www.w3.org/2000/svg" xmlns:xlink="http://www.w3.org/1999/xlink" contentStyleType="text/css" height="677px" preserveAspectRatio="none" style="width:803px;height:677px;background:#FFFFFF;" version="1.1" viewBox="0 0 803 677" width="803px" zoomAndPan="magnify"><defs/><g><!--cluster actors--><g id="cluster_actors"><rect fill="none" height="475" rx="2.5" ry="2.5" style="stroke:#000000;stroke-width:1.0;" width="146" x="7" y="26"/><text fill="#000000" font-family="sans-serif" font-size="14" font-weight="bold" lengthAdjust="spacing" textLength="99" x="30.5" y="43.1074">System Actors</text></g><!--cluster usecases--><g id="cluster_usecases"><rect fill="none" height="664" rx="2.5" ry="2.5" style="stroke:#000000;stroke-width:1.0;" width="616" x="181" y="7"/><text fill="#000000" font-family="sans-serif" font-size="14" font-weight="bold" lengthAdjust="spacing" textLength="74" x="452" y="24.1074">Use Cases</text></g><!--entity Unregistered User--><g id="elem_Unregistered User"><ellipse cx="80" cy="72" fill="#F1F1F1" rx="8" ry="8" style="stroke:#181818;stroke-width:0.5;"/><path d="M80,80 L80,107 M67,88 L93,88 M80,107 L67,122 M80,107 L93,122 " fill="none" style="stroke:#181818;stroke-width:0.5;"/><text fill="#000000" font-family="sans-serif" font-size="14" lengthAdjust="spacing" textLength="114" x="23" y="138.6074">Unregistered User</text></g><!--entity Agent--><g id="elem_Agent"><ellipse cx="80" cy="186" fill="#F1F1F1" rx="8" ry="8" style="stroke:#181818;stroke-width:0.5;"/><path d="M80,194 L80,221 M67,202 L93,202 M80,221 L67,236 M80,221 L93,236 " fill="none" style="stroke:#181818;stroke-width:0.5;"/><text fill="#000000" font-family="sans-serif" font-size="14" lengthAdjust="spacing" textLength="37" x="61.5" y="252.6074">Agent</text></g><!--entity Administrator--><g id="elem_Administrator"><ellipse cx="80" cy="300" fill="#F1F1F1" rx="8" ry="8" style="stroke:#181818;stroke-width:0.5;"/><path d="M80,308 L80,335 M67,316 L93,316 M80,335 L67,350 M80,335 L93,350 " fill="none" style="stroke:#181818;stroke-width:0.5;"/><text fill="#000000" font-family="sans-serif" font-size="14" lengthAdjust="spacing" textLength="83" x="38.5" y="366.6074">Administrator</text></g><!--entity Owner--><g id="elem_Owner"><ellipse cx="80" cy="414" fill="#F1F1F1" rx="8" ry="8" style="stroke:#181818;stroke-width:0.5;"/><path d="M80,422 L80,449 M67,430 L93,430 M80,449 L67,464 M80,449 L93,464 " fill="none" style="stroke:#181818;stroke-width:0.5;"/><text fill="#000000" font-family="sans-serif" font-size="14" lengthAdjust="spacing" textLength="41" x="59.5" y="480.6074">Owner</text></g><g id="elem_UC1"><ellipse cx="489.2122" cy="69.2424" fill="#F1F1F1" rx="114.2122" ry="25.2424" style="stroke:#181818;stroke-width:0.5;"/><text fill="#000000" font-family="sans-serif" font-size="14" lengthAdjust="spacing" textLength="190" x="394.2122" y="73.0393">UC1: Display listed properties.</text></g><g id="elem_UC2"><ellipse cx="488.7588" cy="167.7518" fill="#F1F1F1" rx="179.2588" ry="38.2518" style="stroke:#181818;stroke-width:0.5;"/><text fill="#000000" font-family="sans-serif" font-size="14" lengthAdjust="spacing" textLength="328" x="324.7588" y="171.5486">UC2: Publish any sale announcement on the system</text></g><g id="elem_UC3"><ellipse cx="488.8571" cy="267.9714" fill="#F1F1F1" rx="117.8571" ry="25.9714" style="stroke:#181818;stroke-width:0.5;"/><text fill="#000000" font-family="sans-serif" font-size="14" lengthAdjust="spacing" textLength="198" x="389.8571" y="271.7683">UC3: Register a new employee.</text></g><g id="elem_UC4"><ellipse cx="488.777" cy="593.7554" fill="#F1F1F1" rx="291.777" ry="60.7554" style="stroke:#181818;stroke-width:0.5;"/><text fill="#000000" font-family="sans-serif" font-size="14" lengthAdjust="spacing" textLength="558" x="209.777" y="597.5523">UC4: Submit a request for listing a property sale or rent, choosing the responsible agent.</text></g><g id="elem_UC5"><ellipse cx="488.888" cy="349.8776" fill="#F1F1F1" rx="92.388" ry="20.8776" style="stroke:#181818;stroke-width:0.5;"/><text fill="#000000" font-family="sans-serif" font-size="14" lengthAdjust="spacing" textLength="140" x="415.888" y="354.6813">UC5: Register a store.</text></g><g id="elem_UC6"><ellipse cx="489.1218" cy="451.8244" fill="#F1F1F1" rx="217.1218" ry="45.8244" style="stroke:#181818;stroke-width:0.5;"/><text fill="#000000" font-family="sans-serif" font-size="14" lengthAdjust="spacing" textLength="406" x="286.1218" y="455.6212">UC6: Specify districts, municipalities, and parishes in the system.</text></g><!--link Unregistered User to UC1--><g id="link_Unregistered User_UC1"><path d="M137.16,98.31 C198.83,93.16 299.41,84.75 377.1,78.26 " fill="none" id="Unregistered User-to-UC1" style="stroke:#181818;stroke-width:1.0;"/><polygon fill="#181818" points="382.18,77.84,372.8797,74.599,377.1972,78.254,373.5421,82.5715,382.18,77.84" style="stroke:#181818;stroke-width:1.0;"/></g><!--link Agent to UC2--><g id="link_Agent_UC2"><path d="M98.75,214.86 C138.58,210.07 238.54,198.03 327.18,187.36 " fill="none" id="Agent-to-UC2" style="stroke:#181818;stroke-width:1.0;"/><polygon fill="#181818" points="332.2,186.76,322.7846,183.8704,327.2362,187.3608,323.7459,191.8125,332.2,186.76" style="stroke:#181818;stroke-width:1.0;"/></g><!--link Administrator to UC3--><g id="link_Administrator_UC3"><path d="M121.62,321.45 C137.59,317.89 156.1,313.99 173,311 C241.2,298.95 318.22,288.38 379.02,280.74 " fill="none" id="Administrator-to-UC3" style="stroke:#181818;stroke-width:1.0;"/><polygon fill="#181818" points="384.11,280.1,374.6783,277.2639,379.1497,280.729,375.6847,285.2004,384.11,280.1" style="stroke:#181818;stroke-width:1.0;"/></g><!--link Owner to UC4--><g id="link_Owner_UC4"><path d="M100.6,463.73 C118.23,479.58 145.51,501.78 173,515 C203.03,529.43 235.98,541.41 268.9,551.3 " fill="none" id="Owner-to-UC4" style="stroke:#181818;stroke-width:1.0;"/><polygon fill="#181818" points="273.76,552.75,266.2626,546.3633,268.965,551.333,263.9954,554.0353,273.76,552.75" style="stroke:#181818;stroke-width:1.0;"/></g><!--link Administrator to UC5--><g id="link_Administrator_UC5"><path d="M121.51,332.89 C184.3,335.82 306.83,341.54 392.87,345.56 " fill="none" id="Administrator-to-UC5" style="stroke:#181818;stroke-width:1.0;"/><polygon fill="#181818" points="397.97,345.8,389.1753,341.3669,392.9759,345.5567,388.786,349.3574,397.97,345.8" style="stroke:#181818;stroke-width:1.0;"/></g><!--link Administrator to UC6--><g id="link_Administrator_UC6"><path d="M121.94,360.69 C137.32,370.66 155.36,381 173,388 C213.71,404.14 259.06,416.41 302.38,425.65 " fill="none" id="Administrator-to-UC6" style="stroke:#181818;stroke-width:1.0;"/><polygon fill="#181818" points="307.38,426.7,299.3971,420.9317,302.4873,425.6699,297.749,428.7601,307.38,426.7" style="stroke:#181818;stroke-width:1.0;"/></g><!--SRC=[TLB1Rjim3BthAuXSV4a7h4roo650b_NSOK5lkp0oRHErAK-IaNd3_dsKxAH9qFeWcEBZuzCZY_3AqgF73ZedpZRUTGJH3sJUCZtQLwnf7yUMm9EDA7LBfdX3X0PBTsIfeS8saBaeFkF_6j3lg_Cb-PrhdOT3gyJcdp55vAZKBu5WXtfyOwnJxTDlx7hjP5gg8aG7dkicGic9b9qOSsQ7nNuCaJfujD7vi00CWFaNfiOvWCMBUAfPaPxArD0lBhAFDKcyZCkEHS4UDRguVpuAJN4nqpxx6eN_O5BrKvvKjHk9iefJa1vg2d6HvcUuAWkOUB9iu585SCMgxJ14297RTigB0-l4UjBoGIsowbCm1Ka9YVBAYPEFamkApk39XZbIqExpLeqEVOiZjCcH4dhlUlAHANpAfOgvBRhVmlVXeFW6K4O8g0rHn0rYgLFnu0HYGn3oD6QM-rkMXotycCS02497eDcbK-E7svBL5lR3eUEe1Pv-3HGYL6fPafuM3q_gPr6Qygfd2RPnBYH4akKfz4u27vBiDErJlzLjl_MLnA3JEMjRts8tggqdozMekwdhmZQ69NI3iEKUMqwEBjKcTHYzMaS1-DAc4_4c4x-pet1tz-KyZRobyytaxDMUpfd9mBofyytgG-pwmyp6vBNz3m00]--></g></svg>