<?xml version="1.0" encoding="us-ascii" standalone="no"?><svg xmlns="http://www.w3.org/2000/svg" xmlns:xlink="http://www.w3.org/1999/xlink" contentStyleType="text/css" height="1483px" preserveAspectRatio="none" style="width:753px;height:1483px;background:#FFFFFF;" version="1.1" viewBox="0 0 753 1483" width="753px" zoomAndPan="magnify"><defs/><g><text fill="#000000" font-family="sans-serif" font-size="14" font-weight="bold" lengthAdjust="spacing" textLength="100" x="319.75" y="25.1074">Domain Model</text><!--class SystemAdministrator--><g id="elem_SystemAdministrator"><rect codeLine="16" fill="#F1F1F1" height="129.7266" id="SystemAdministrator" rx="2.5" ry="2.5" style="stroke:#181818;stroke-width:0.5;" width="135" x="219" y="46.6211"/><text fill="#000000" font-family="sans-serif" font-size="14" lengthAdjust="spacing" textLength="129" x="222" y="66.7285">SystemAdministrator</text><line style="stroke:#181818;stroke-width:0.5;" x1="220" x2="353" y1="75.2422" y2="75.2422"/><text fill="#000000" font-family="sans-serif" font-size="14" lengthAdjust="spacing" textLength="35" x="225" y="94.3496">name</text><text fill="#000000" font-family="sans-serif" font-size="14" lengthAdjust="spacing" textLength="33" x="225" y="112.9707">email</text><text fill="#000000" font-family="sans-serif" font-size="14" lengthAdjust="spacing" textLength="116" x="225" y="131.5918">citzenCardNumber</text><text fill="#000000" font-family="sans-serif" font-size="14" lengthAdjust="spacing" textLength="67" x="225" y="150.2129">taxNumber</text><text fill="#000000" font-family="sans-serif" font-size="14" lengthAdjust="spacing" textLength="89" x="225" y="168.834">phoneNumber</text></g><!--class UnregisteredUser--><g id="elem_UnregisteredUser"><rect codeLine="23" fill="#F1F1F1" height="36.6211" id="UnregisteredUser" rx="2.5" ry="2.5" style="stroke:#181818;stroke-width:0.5;" width="116" x="605.5" y="888.1211"/><text fill="#000000" font-family="sans-serif" font-size="14" lengthAdjust="spacing" textLength="110" x="608.5" y="908.2285">UnregisteredUser</text><line style="stroke:#181818;stroke-width:0.5;" x1="606.5" x2="720.5" y1="916.7422" y2="916.7422"/></g><!--class Owner--><g id="elem_Owner"><rect codeLine="25" fill="#F1F1F1" height="129.7266" id="Owner" rx="2.5" ry="2.5" style="stroke:#181818;stroke-width:0.5;" width="131" x="7" y="544.6211"/><text fill="#000000" font-family="sans-serif" font-size="14" lengthAdjust="spacing" textLength="41" x="52" y="564.7285">Owner</text><line style="stroke:#181818;stroke-width:0.5;" x1="8" x2="137" y1="573.2422" y2="573.2422"/><text fill="#000000" font-family="sans-serif" font-size="14" lengthAdjust="spacing" textLength="35" x="13" y="592.3496">name</text><text fill="#000000" font-family="sans-serif" font-size="14" lengthAdjust="spacing" textLength="119" x="13" y="610.9707">citizenCardNumber</text><text fill="#000000" font-family="sans-serif" font-size="14" lengthAdjust="spacing" textLength="67" x="13" y="629.5918">taxNumber</text><text fill="#000000" font-family="sans-serif" font-size="14" lengthAdjust="spacing" textLength="33" x="13" y="648.2129">email</text><text fill="#000000" font-family="sans-serif" font-size="14" lengthAdjust="spacing" textLength="89" x="13" y="666.834">phoneNumber</text></g><!--class Company--><g id="elem_Company"><rect codeLine="33" fill="#F1F1F1" height="36.6211" id="Company" rx="2.5" ry="2.5" style="stroke:#181818;stroke-width:0.5;" width="66" x="680.5" y="382.1211"/><text fill="#000000" font-family="sans-serif" font-size="14" lengthAdjust="spacing" textLength="60" x="683.5" y="402.2285">Company</text><line style="stroke:#181818;stroke-width:0.5;" x1="681.5" x2="745.5" y1="410.7422" y2="410.7422"/></g><!--class CompanyEmployee--><g id="elem_CompanyEmployee"><rect codeLine="36" fill="#F1F1F1" height="129.7266" id="CompanyEmployee" rx="2.5" ry="2.5" style="stroke:#181818;stroke-width:0.5;" width="131" x="172" y="335.6211"/><text fill="#000000" font-family="sans-serif" font-size="14" lengthAdjust="spacing" textLength="122" x="176.5" y="355.7285">CompanyEmployee</text><line style="stroke:#181818;stroke-width:0.5;" x1="173" x2="302" y1="364.2422" y2="364.2422"/><text fill="#000000" font-family="sans-serif" font-size="14" lengthAdjust="spacing" textLength="35" x="178" y="383.3496">name</text><text fill="#000000" font-family="sans-serif" font-size="14" lengthAdjust="spacing" textLength="119" x="178" y="401.9707">citizenCardNumber</text><text fill="#000000" font-family="sans-serif" font-size="14" lengthAdjust="spacing" textLength="67" x="178" y="420.5918">taxNumber</text><text fill="#000000" font-family="sans-serif" font-size="14" lengthAdjust="spacing" textLength="33" x="178" y="439.2129">email</text><text fill="#000000" font-family="sans-serif" font-size="14" lengthAdjust="spacing" textLength="89" x="178" y="457.834">phoneNumber</text></g><!--class Address--><g id="elem_Address"><rect codeLine="44" fill="#F1F1F1" height="129.7266" id="Address" rx="2.5" ry="2.5" style="stroke:#181818;stroke-width:0.5;" width="63" x="316" y="544.6211"/><text fill="#000000" font-family="sans-serif" font-size="14" lengthAdjust="spacing" textLength="52" x="321.5" y="564.7285">Address</text><line style="stroke:#181818;stroke-width:0.5;" x1="317" x2="378" y1="573.2422" y2="573.2422"/><text fill="#000000" font-family="sans-serif" font-size="14" lengthAdjust="spacing" textLength="36" x="322" y="592.3496">street</text><text fill="#000000" font-family="sans-serif" font-size="14" lengthAdjust="spacing" textLength="21" x="322" y="610.9707">city</text><text fill="#000000" font-family="sans-serif" font-size="14" lengthAdjust="spacing" textLength="41" x="322" y="629.5918">district</text><text fill="#000000" font-family="sans-serif" font-size="14" lengthAdjust="spacing" textLength="31" x="322" y="648.2129">state</text><text fill="#000000" font-family="sans-serif" font-size="14" lengthAdjust="spacing" textLength="51" x="322" y="666.834">zipCode</text></g><!--class Role--><g id="elem_Role"><rect codeLine="52" fill="#F1F1F1" height="55.2422" id="Role" rx="2.5" ry="2.5" style="stroke:#181818;stroke-width:0.5;" width="68" x="46.5" y="84.1211"/><text fill="#000000" font-family="sans-serif" font-size="14" lengthAdjust="spacing" textLength="29" x="66" y="104.2285">Role</text><line style="stroke:#181818;stroke-width:0.5;" x1="47.5" x2="113.5" y1="112.7422" y2="112.7422"/><text fill="#000000" font-family="sans-serif" font-size="14" lengthAdjust="spacing" textLength="56" x="52.5" y="131.8496">roleType</text></g><!--class Agent--><g id="elem_Agent"><rect codeLine="56" fill="#F1F1F1" height="36.6211" id="Agent" rx="2.5" ry="2.5" style="stroke:#181818;stroke-width:0.5;" width="43" x="216" y="753.6211"/><text fill="#000000" font-family="sans-serif" font-size="14" lengthAdjust="spacing" textLength="37" x="219" y="773.7285">Agent</text><line style="stroke:#181818;stroke-width:0.5;" x1="217" x2="258" y1="782.2422" y2="782.2422"/></g><!--class Request--><g id="elem_Request"><rect codeLine="59" fill="#F1F1F1" height="55.2422" id="Request" rx="2.5" ry="2.5" style="stroke:#181818;stroke-width:0.5;" width="117" x="61" y="879.1211"/><text fill="#000000" font-family="sans-serif" font-size="14" lengthAdjust="spacing" textLength="53" x="93" y="899.2285">Request</text><line style="stroke:#181818;stroke-width:0.5;" x1="62" x2="177" y1="907.7422" y2="907.7422"/><text fill="#000000" font-family="sans-serif" font-size="14" lengthAdjust="spacing" textLength="105" x="67" y="926.8496">contractDuration</text></g><!--class CompanyBranch--><g id="elem_CompanyBranch"><rect codeLine="64" fill="#F1F1F1" height="111.1055" id="CompanyBranch" rx="2.5" ry="2.5" style="stroke:#181818;stroke-width:0.5;" width="111" x="469" y="345.1211"/><text fill="#000000" font-family="sans-serif" font-size="14" lengthAdjust="spacing" textLength="105" x="472" y="365.2285">CompanyBranch</text><line style="stroke:#181818;stroke-width:0.5;" x1="470" x2="579" y1="373.7422" y2="373.7422"/><text fill="#000000" font-family="sans-serif" font-size="14" lengthAdjust="spacing" textLength="73" x="475" y="392.8496">designation</text><text fill="#000000" font-family="sans-serif" font-size="14" lengthAdjust="spacing" textLength="49" x="475" y="411.4707">location</text><text fill="#000000" font-family="sans-serif" font-size="14" lengthAdjust="spacing" textLength="33" x="475" y="430.0918">email</text><text fill="#000000" font-family="sans-serif" font-size="14" lengthAdjust="spacing" textLength="89" x="475" y="448.7129">phoneNumber</text></g><!--class Property--><g id="elem_Property"><rect codeLine="71" fill="#F1F1F1" height="111.1055" id="Property" rx="2.5" ry="2.5" style="stroke:#181818;stroke-width:0.5;" width="65" x="392" y="1022.6211"/><text fill="#000000" font-family="sans-serif" font-size="14" lengthAdjust="spacing" textLength="54" x="397.5" y="1042.7285">Property</text><line style="stroke:#181818;stroke-width:0.5;" x1="393" x2="456" y1="1051.2422" y2="1051.2422"/><text fill="#000000" font-family="sans-serif" font-size="14" lengthAdjust="spacing" textLength="29" x="398" y="1070.3496">area</text><text fill="#000000" font-family="sans-serif" font-size="14" lengthAdjust="spacing" textLength="49" x="398" y="1088.9707">location</text><text fill="#000000" font-family="sans-serif" font-size="14" lengthAdjust="spacing" textLength="53" x="398" y="1107.5918">distance</text><text fill="#000000" font-family="sans-serif" font-size="14" lengthAdjust="spacing" textLength="31" x="398" y="1126.2129">price</text></g><!--class Residence--><g id="elem_Residence"><rect codeLine="78" fill="#F1F1F1" height="92.4844" id="Residence" rx="2.5" ry="2.5" style="stroke:#181818;stroke-width:0.5;" width="106" x="282.5" y="1212.6211"/><text fill="#000000" font-family="sans-serif" font-size="14" lengthAdjust="spacing" textLength="67" x="302" y="1232.7285">Residence</text><line style="stroke:#181818;stroke-width:0.5;" x1="283.5" x2="387.5" y1="1241.2422" y2="1241.2422"/><text fill="#000000" font-family="sans-serif" font-size="14" lengthAdjust="spacing" textLength="63" x="288.5" y="1260.3496">bedrooms</text><text fill="#000000" font-family="sans-serif" font-size="14" lengthAdjust="spacing" textLength="67" x="288.5" y="1278.9707">bathrooms</text><text fill="#000000" font-family="sans-serif" font-size="14" lengthAdjust="spacing" textLength="94" x="288.5" y="1297.5918">parkingSpaces</text></g><!--class House--><g id="elem_House"><rect codeLine="84" fill="#F1F1F1" height="92.4844" id="House" rx="2.5" ry="2.5" style="stroke:#181818;stroke-width:0.5;" width="94" x="169.5" y="1383.6211"/><text fill="#000000" font-family="sans-serif" font-size="14" lengthAdjust="spacing" textLength="40" x="196.5" y="1403.7285">House</text><line style="stroke:#181818;stroke-width:0.5;" x1="170.5" x2="262.5" y1="1412.2422" y2="1412.2422"/><text fill="#000000" font-family="sans-serif" font-size="14" lengthAdjust="spacing" textLength="62" x="175.5" y="1431.3496">basement</text><text fill="#000000" font-family="sans-serif" font-size="14" lengthAdjust="spacing" textLength="19" x="175.5" y="1449.9707">loft</text><text fill="#000000" font-family="sans-serif" font-size="14" lengthAdjust="spacing" textLength="82" x="175.5" y="1468.5918">sunExposure</text></g><!--class PropertyType--><g id="elem_PropertyType"><rect codeLine="90" fill="#F1F1F1" height="55.2422" id="PropertyType" rx="2.5" ry="2.5" style="stroke:#181818;stroke-width:0.5;" width="97" x="424" y="1231.1211"/><text fill="#000000" font-family="sans-serif" font-size="14" lengthAdjust="spacing" textLength="86" x="429.5" y="1251.2285">PropertyType</text><line style="stroke:#181818;stroke-width:0.5;" x1="425" x2="520" y1="1259.7422" y2="1259.7422"/><text fill="#000000" font-family="sans-serif" font-size="14" lengthAdjust="spacing" textLength="85" x="430" y="1278.8496">propertyTypeProperty</text></g><!--class RequestType--><g id="elem_RequestType"><rect codeLine="93" fill="#F1F1F1" height="55.2422" id="RequestType" rx="2.5" ry="2.5" style="stroke:#181818;stroke-width:0.5;" width="92" x="73.5" y="1050.6211"/><text fill="#000000" font-family="sans-serif" font-size="14" lengthAdjust="spacing" textLength="85" x="77" y="1070.7285">RequestType</text><line style="stroke:#181818;stroke-width:0.5;" x1="74.5" x2="164.5" y1="1079.2422" y2="1079.2422"/><text fill="#000000" font-family="sans-serif" font-size="14" lengthAdjust="spacing" textLength="80" x="79.5" y="1098.3496">requestTypeRequest</text></g><!--class Equipment--><g id="elem_Equipment"><rect codeLine="96" fill="#F1F1F1" height="36.6211" id="Equipment" rx="2.5" ry="2.5" style="stroke:#181818;stroke-width:0.5;" width="73" x="299" y="1411.1211"/><text fill="#000000" font-family="sans-serif" font-size="14" lengthAdjust="spacing" textLength="67" x="302" y="1431.2285">Equipment</text><line style="stroke:#181818;stroke-width:0.5;" x1="300" x2="371" y1="1439.7422" y2="1439.7422"/></g><!--class Photograph--><g id="elem_Photograph"><rect codeLine="97" fill="#F1F1F1" height="36.6211" id="Photograph" rx="2.5" ry="2.5" style="stroke:#181818;stroke-width:0.5;" width="80" x="407.5" y="1411.1211"/><text fill="#000000" font-family="sans-serif" font-size="14" lengthAdjust="spacing" textLength="74" x="410.5" y="1431.2285">Photograph</text><line style="stroke:#181818;stroke-width:0.5;" x1="408.5" x2="486.5" y1="1439.7422" y2="1439.7422"/></g><!--class SaleAnnouncement--><g id="elem_SaleAnnouncement"><rect codeLine="98" fill="#F1F1F1" height="55.2422" id="SaleAnnouncement" rx="2.5" ry="2.5" style="stroke:#181818;stroke-width:0.5;" width="129" x="281" y="879.1211"/><text fill="#000000" font-family="sans-serif" font-size="14" lengthAdjust="spacing" textLength="123" x="284" y="899.2285">SaleAnnouncement</text><line style="stroke:#181818;stroke-width:0.5;" x1="282" x2="409" y1="907.7422" y2="907.7422"/><text fill="#000000" font-family="sans-serif" font-size="14" lengthAdjust="spacing" textLength="28" x="287" y="926.8496">date</text></g><!--class Commission--><g id="elem_Commission"><rect codeLine="101" fill="#F1F1F1" height="73.8633" id="Commission" rx="2.5" ry="2.5" style="stroke:#181818;stroke-width:0.5;" width="89" x="481" y="869.6211"/><text fill="#000000" font-family="sans-serif" font-size="14" lengthAdjust="spacing" textLength="76" x="487.5" y="889.7285">Commission</text><line style="stroke:#181818;stroke-width:0.5;" x1="482" x2="569" y1="898.2422" y2="898.2422"/><text fill="#000000" font-family="sans-serif" font-size="14" lengthAdjust="spacing" textLength="77" x="487" y="917.3496">fixedAmount</text><text fill="#000000" font-family="sans-serif" font-size="14" lengthAdjust="spacing" textLength="72" x="487" y="935.9707">percentage</text></g><!--link Owner to Request--><g id="link_Owner_Request"><path codeLine="107" d="M81.82,674.8611 C88.61,720.8011 98.21,784.0911 107.5,839.6211 C109.67,852.6011 112.26,866.9811 114.48,879.0011 " fill="none" id="Owner-Request" style="stroke:#181818;stroke-width:1.0;"/><polygon fill="#000000" points="105.2899,777.2038,106.763,767.808,100.9589,768.7366,105.2899,777.2038" style="stroke:#000000;stroke-width:1.0;"/><text fill="#000000" font-family="sans-serif" font-size="13" lengthAdjust="spacing" textLength="43" x="113.5" y="777.6494">creates</text><text fill="#000000" font-family="sans-serif" font-size="13" lengthAdjust="spacing" textLength="7" x="75.4202" y="696.523">1</text><text fill="#000000" font-family="sans-serif" font-size="13" lengthAdjust="spacing" textLength="20" x="115.6316" y="867.6823">0..*</text></g><!--link CompanyBranch to Request--><g id="link_CompanyBranch_Request"><path codeLine="108" d="M538.78,456.3211 C559.27,548.7711 584.52,735.9911 485.5,839.6211 C451.11,875.6111 312.39,860.2411 263.5,869.6211 C235.16,875.0611 204.05,882.6311 178.02,889.4311 " fill="none" id="CompanyBranch-Request" style="stroke:#181818;stroke-width:1.0;"/><polygon fill="#000000" points="551.2999,718.1084,559.3471,713.0394,554.8307,709.2776,551.2999,718.1084" style="stroke:#000000;stroke-width:1.0;"/><text fill="#000000" font-family="sans-serif" font-size="13" lengthAdjust="spacing" textLength="49" x="563.5" y="719.6494">contains</text><text fill="#000000" font-family="sans-serif" font-size="13" lengthAdjust="spacing" textLength="7" x="533.0938" y="478.1851">1</text><text fill="#000000" font-family="sans-serif" font-size="13" lengthAdjust="spacing" textLength="20" x="185.9426" y="883.4918">0..*</text></g><!--link Request to Property--><g id="link_Request_Property"><path codeLine="109" d="M167.49,934.2911 C230.07,969.0711 337.87,1028.9811 391.79,1058.9411 " fill="none" id="Request-Property" style="stroke:#181818;stroke-width:1.0;"/><polygon fill="#000000" points="280.8705,985.6954,274.3918,978.7328,271.5366,983.8706,280.8705,985.6954" style="stroke:#000000;stroke-width:1.0;"/><text fill="#000000" font-family="sans-serif" font-size="13" lengthAdjust="spacing" textLength="49" x="285.5" y="988.6494">contains</text><text fill="#000000" font-family="sans-serif" font-size="13" lengthAdjust="spacing" textLength="7" x="170.2222" y="956.2369">1</text><text fill="#000000" font-family="sans-serif" font-size="13" lengthAdjust="spacing" textLength="7" x="376.8691" y="1049.9347">1</text></g><!--link Request to RequestType--><g id="link_Request_RequestType"><path codeLine="110" d="M119.5,934.4811 C119.5,966.2211 119.5,1018.7011 119.5,1050.3911 " fill="none" id="Request-RequestType" style="stroke:#181818;stroke-width:1.0;"/><polygon fill="#000000" points="124.5,988.2666,127.4389,979.2215,121.5611,979.2215,124.5,988.2666" style="stroke:#000000;stroke-width:1.0;"/><text fill="#000000" font-family="sans-serif" font-size="13" lengthAdjust="spacing" textLength="10" x="133.5" y="988.6494">is</text><text fill="#000000" font-family="sans-serif" font-size="13" lengthAdjust="spacing" textLength="7" x="111.7344" y="956.4685">1</text><text fill="#000000" font-family="sans-serif" font-size="13" lengthAdjust="spacing" textLength="20" x="97.3125" y="1039.4994">1..*</text></g><!--link CompanyBranch to Company--><g id="link_CompanyBranch_Company"><path codeLine="111" d="M580.18,400.6211 C612.74,400.6211 652.74,400.6211 680.38,400.6211 " fill="none" id="CompanyBranch-Company" style="stroke:#181818;stroke-width:1.0;"/><polygon fill="#000000" points="607.25,388.2666,598.2049,385.3277,598.2049,391.2055,607.25,388.2666" style="stroke:#000000;stroke-width:1.0;"/><text fill="#000000" font-family="sans-serif" font-size="13" lengthAdjust="spacing" textLength="51" x="611.25" y="393.6494">is owned</text><text fill="#000000" font-family="sans-serif" font-size="13" lengthAdjust="spacing" textLength="20" x="588.1847" y="415.6967">0..*</text><text fill="#000000" font-family="sans-serif" font-size="13" lengthAdjust="spacing" textLength="7" x="665.3694" y="395.8633">1</text></g><!--link Property to PropertyType--><g id="link_Property_PropertyType"><path codeLine="112" d="M439.16,1133.6511 C447.82,1165.8411 458.4,1205.1711 465.28,1230.7811 " fill="none" id="Property-PropertyType" style="stroke:#181818;stroke-width:1.0;"/><polygon fill="#000000" points="456.7985,1178.0951,457.2876,1168.5971,451.6114,1170.1235,456.7985,1178.0951" style="stroke:#000000;stroke-width:1.0;"/><text fill="#000000" font-family="sans-serif" font-size="13" lengthAdjust="spacing" textLength="10" x="464.5" y="1178.6494">is</text><text fill="#000000" font-family="sans-serif" font-size="13" lengthAdjust="spacing" textLength="7" x="433.5899" y="1155.8951">1</text><text fill="#000000" font-family="sans-serif" font-size="13" lengthAdjust="spacing" textLength="20" x="441.5131" y="1219.8654">1..*</text></g><!--link Residence to Equipment--><g id="link_Residence_Equipment"><path codeLine="113" d="M335.5,1304.9111 C335.5,1339.7211 335.5,1385.9311 335.5,1410.8611 " fill="none" id="Residence-Equipment" style="stroke:#181818;stroke-width:1.0;"/><polygon fill="#000000" points="340.5,1349.2666,343.4389,1340.2215,337.5611,1340.2215,340.5,1349.2666" style="stroke:#000000;stroke-width:1.0;"/><text fill="#000000" font-family="sans-serif" font-size="13" lengthAdjust="spacing" textLength="21" x="349.5" y="1349.6494">has</text><text fill="#000000" font-family="sans-serif" font-size="13" lengthAdjust="spacing" textLength="7" x="327.9859" y="1326.9725">1</text><text fill="#000000" font-family="sans-serif" font-size="13" lengthAdjust="spacing" textLength="20" x="312.5625" y="1399.9802">0..*</text></g><!--link Residence to Photograph--><g id="link_Residence_Photograph"><path codeLine="114" d="M365.51,1304.9111 C388.58,1339.7211 419.21,1385.9311 435.73,1410.8611 " fill="none" id="Residence-Photograph" style="stroke:#181818;stroke-width:1.0;"/><polygon fill="#000000" points="402.2622,1348.4343,399.715,1339.2712,394.8156,1342.5184,402.2622,1348.4343" style="stroke:#000000;stroke-width:1.0;"/><text fill="#000000" font-family="sans-serif" font-size="13" lengthAdjust="spacing" textLength="21" x="408.5" y="1349.6494">has</text><text fill="#000000" font-family="sans-serif" font-size="13" lengthAdjust="spacing" textLength="7" x="362.4037" y="1326.9725">1</text><text fill="#000000" font-family="sans-serif" font-size="13" lengthAdjust="spacing" textLength="20" x="409.3351" y="1399.9802">1..*</text></g><!--link UnregisteredUser to Property--><g id="link_UnregisteredUser_Property"><path codeLine="116" d="M638.82,925.1211 C595.53,955.8311 505.89,1019.4011 457.39,1053.7911 " fill="none" id="UnregisteredUser-Property" style="stroke:#181818;stroke-width:1.0;"/><polygon fill="#000000" points="565.4215,986.159,574.4997,983.3238,571.0994,978.5293,565.4215,986.159" style="stroke:#000000;stroke-width:1.0;"/><text fill="#000000" font-family="sans-serif" font-size="13" lengthAdjust="spacing" textLength="74" x="578.5" y="988.6494">wants to see</text><text fill="#000000" font-family="sans-serif" font-size="13" lengthAdjust="spacing" textLength="7" x="623.8944" y="946.8374">1</text><text fill="#000000" font-family="sans-serif" font-size="13" lengthAdjust="spacing" textLength="20" x="469.1055" y="1045.1927">0..*</text></g><!--link Agent to Request--><g id="link_Agent_Request"><path codeLine="117" d="M226.12,790.7511 C216.89,804.5611 203.21,823.9911 189.5,839.6211 C177.5,853.3111 163.02,867.3011 150.36,878.8711 " fill="none" id="Agent-Request" style="stroke:#181818;stroke-width:1.0;"/><polygon fill="#000000" points="205.2404,834.058,213.3656,829.1152,208.9085,825.2833,205.2404,834.058" style="stroke:#000000;stroke-width:1.0;"/><text fill="#000000" font-family="sans-serif" font-size="13" lengthAdjust="spacing" textLength="52" x="217.5" y="835.6494">analyzes</text><text fill="#000000" font-family="sans-serif" font-size="13" lengthAdjust="spacing" textLength="7" x="215.121" y="812.1606">1</text><text fill="#000000" font-family="sans-serif" font-size="13" lengthAdjust="spacing" textLength="20" x="159.2981" y="867.9751">0..*</text></g><!--link Agent to Request--><g id="link_Agent_Request"><path codeLine="118" d="M215.57,775.3511 C188.86,779.3611 144.67,790.4211 123.5,820.6211 C111.8,837.3111 111.55,860.7111 113.81,878.7311 " fill="none" id="Agent-Request-1" style="stroke:#181818;stroke-width:1.0;"/><polygon fill="#000000" points="124.9925,833.8299,133.4321,829.4455,129.2432,825.3221,124.9925,833.8299" style="stroke:#000000;stroke-width:1.0;"/><text fill="#000000" font-family="sans-serif" font-size="13" lengthAdjust="spacing" textLength="43" x="137.5" y="835.6494">creates</text><text fill="#000000" font-family="sans-serif" font-size="13" lengthAdjust="spacing" textLength="7" x="201.0999" y="770.9297">1</text><text fill="#000000" font-family="sans-serif" font-size="13" lengthAdjust="spacing" textLength="20" x="90.3778" y="867.8044">0..*</text></g><!--link Agent to Commission--><g id="link_Agent_Commission"><path codeLine="119" d="M259.33,778.3211 C288.91,785.7511 343.04,800.7611 386.5,820.6211 C419.43,835.6711 454.18,856.9211 480.7,874.4111 " fill="none" id="Agent-Commission" style="stroke:#181818;stroke-width:1.0;"/><polygon fill="#000000" points="431.0865,832.2575,423.9596,825.96,421.6192,831.3518,431.0865,832.2575" style="stroke:#000000;stroke-width:1.0;"/><text fill="#000000" font-family="sans-serif" font-size="13" lengthAdjust="spacing" textLength="41" x="435.5" y="835.6494">defines</text><text fill="#000000" font-family="sans-serif" font-size="13" lengthAdjust="spacing" textLength="7" x="267.0873" y="774.7476">1</text><text fill="#000000" font-family="sans-serif" font-size="13" lengthAdjust="spacing" textLength="7" x="466.0022" y="864.9853">1</text></g><!--link Agent to SaleAnnouncement--><g id="link_Agent_SaleAnnouncement"><path codeLine="120" d="M259.07,787.4811 C271.03,796.1411 285.64,807.9311 296.5,820.6211 C311.67,838.3511 324.64,861.4411 333.42,879.0911 " fill="none" id="Agent-SaleAnnouncement" style="stroke:#181818;stroke-width:1.0;"/><polygon fill="#000000" points="316.6508,834.1489,313.2329,825.2737,308.669,828.9778,316.6508,834.1489" style="stroke:#000000;stroke-width:1.0;"/><text fill="#000000" font-family="sans-serif" font-size="13" lengthAdjust="spacing" textLength="55" x="322.5" y="835.6494">publishes</text><text fill="#000000" font-family="sans-serif" font-size="13" lengthAdjust="spacing" textLength="7" x="267.0611" y="809.2216">1</text><text fill="#000000" font-family="sans-serif" font-size="13" lengthAdjust="spacing" textLength="20" x="308.314" y="867.7931">1..*</text></g><!--link Request to SaleAnnouncement--><g id="link_Request_SaleAnnouncement"><path codeLine="121" d="M178.29,906.6211 C209.68,906.6211 248.38,906.6211 280.64,906.6211 " fill="none" id="Request-SaleAnnouncement" style="stroke:#181818;stroke-width:1.0;"/><polygon fill="#000000" points="205.5,894.2666,196.4549,891.3277,196.4549,897.2055,205.5,894.2666" style="stroke:#000000;stroke-width:1.0;"/><text fill="#000000" font-family="sans-serif" font-size="13" lengthAdjust="spacing" textLength="53" x="209.5" y="899.6494">becomes</text><text fill="#000000" font-family="sans-serif" font-size="13" lengthAdjust="spacing" textLength="7" x="185.8816" y="902.6165">1</text><text fill="#000000" font-family="sans-serif" font-size="13" lengthAdjust="spacing" textLength="18" x="255.0232" y="921.5285">0,1</text></g><!--link SaleAnnouncement to Commission--><g id="link_SaleAnnouncement_Commission"><path codeLine="122" d="M410.23,906.6211 C433.61,906.6211 459.47,906.6211 480.76,906.6211 " fill="none" id="SaleAnnouncement-Commission" style="stroke:#181818;stroke-width:1.0;"/><polygon fill="#000000" points="437.5,894.2666,428.4549,891.3277,428.4549,897.2055,437.5,894.2666" style="stroke:#000000;stroke-width:1.0;"/><text fill="#000000" font-family="sans-serif" font-size="13" lengthAdjust="spacing" textLength="21" x="441.5" y="899.6494">has</text><text fill="#000000" font-family="sans-serif" font-size="13" lengthAdjust="spacing" textLength="7" x="418.1191" y="902.6694">1</text><text fill="#000000" font-family="sans-serif" font-size="13" lengthAdjust="spacing" textLength="7" x="466.0718" y="902.3288">1</text></g><!--link CompanyEmployee to CompanyBranch--><g id="link_CompanyEmployee_CompanyBranch"><path codeLine="123" d="M303.17,415.4011 C319.23,418.4011 336.41,421.0911 352.5,422.6211 C382.14,425.4311 389.88,425.6911 419.5,422.6211 C435.71,420.9411 453.11,417.8411 468.98,414.4811 " fill="none" id="CompanyEmployee-CompanyBranch" style="stroke:#181818;stroke-width:1.0;"/><polygon fill="#000000" points="362.4999,413.2389,353.4387,410.3502,353.4713,416.2279,362.4999,413.2389" style="stroke:#000000;stroke-width:1.0;"/><text fill="#000000" font-family="sans-serif" font-size="13" lengthAdjust="spacing" textLength="52" x="366.5" y="418.6494">works for</text><text fill="#000000" font-family="sans-serif" font-size="13" lengthAdjust="spacing" textLength="7" x="311.1678" y="432.1538">1</text><text fill="#000000" font-family="sans-serif" font-size="13" lengthAdjust="spacing" textLength="7" x="454.0492" y="431.5265">1</text></g><!--link CompanyEmployee to CompanyBranch--><g id="link_CompanyEmployee_CompanyBranch"><path codeLine="124" d="M303.34,400.6211 C353.32,400.6211 421.29,400.6211 468.63,400.6211 " fill="none" id="CompanyEmployee-CompanyBranch-1" style="stroke:#181818;stroke-width:1.0;"/><polygon fill="#000000" points="362,388.2666,352.9549,385.3277,352.9549,391.2055,362,388.2666" style="stroke:#000000;stroke-width:1.0;"/><text fill="#000000" font-family="sans-serif" font-size="13" lengthAdjust="spacing" textLength="53" x="366" y="393.6494">manages</text><text fill="#000000" font-family="sans-serif" font-size="13" lengthAdjust="spacing" textLength="7" x="310.9241" y="396.7506">1</text><text fill="#000000" font-family="sans-serif" font-size="13" lengthAdjust="spacing" textLength="7" x="454.0232" y="396.5722">1</text></g><!--link Role to CompanyEmployee--><g id="link_Role_CompanyEmployee"><path codeLine="125" d="M91.37,139.1611 C103.67,168.4611 124.82,216.7611 146.5,256.6211 C160.91,283.1211 178.37,311.3211 194.13,335.6111 " fill="none" id="Role-CompanyEmployee" style="stroke:#181818;stroke-width:1.0;"/><polygon fill="#000000" points="149.1825,242.8361,150.7707,252.2131,155.9791,249.4887,149.1825,242.8361" style="stroke:#000000;stroke-width:1.0;"/><text fill="#000000" font-family="sans-serif" font-size="13" lengthAdjust="spacing" textLength="21" x="160.5" y="252.6494">has</text><text fill="#000000" font-family="sans-serif" font-size="13" lengthAdjust="spacing" textLength="7" x="86.0743" y="161.5293">1</text><text fill="#000000" font-family="sans-serif" font-size="13" lengthAdjust="spacing" textLength="7" x="181.7107" y="324.1725">1</text></g><!--link SystemAdministrator to CompanyEmployee--><g id="link_SystemAdministrator_CompanyEmployee"><path codeLine="127" d="M228.15,176.7111 C214.82,195.1011 202.52,216.0511 195.5,237.6211 C185.16,269.3911 192.58,305.3111 203.9,335.2411 " fill="none" id="SystemAdministrator-CompanyEmployee" style="stroke:#181818;stroke-width:1.0;"/><polygon fill="#000000" points="199.744,252.2091,204.0168,243.7124,198.2065,242.8236,199.744,252.2091" style="stroke:#000000;stroke-width:1.0;"/><text fill="#000000" font-family="sans-serif" font-size="13" lengthAdjust="spacing" textLength="50" x="209.5" y="252.6494">registers</text><text fill="#000000" font-family="sans-serif" font-size="13" lengthAdjust="spacing" textLength="7" x="214.7717" y="198.3575">1</text><text fill="#000000" font-family="sans-serif" font-size="13" lengthAdjust="spacing" textLength="20" x="201.3188" y="324.2197">1..*</text></g><!--link SystemAdministrator to CompanyEmployee--><g id="link_SystemAdministrator_CompanyEmployee"><path codeLine="128" d="M277.18,176.8511 C273.43,201.7911 268.95,230.5711 264.5,256.6211 C260.1,282.4011 254.84,310.7011 250.14,335.2811 " fill="none" id="SystemAdministrator-CompanyEmployee-1" style="stroke:#181818;stroke-width:1.0;"/><polygon fill="#000000" points="271.6588,252.1953,276.0776,243.7736,270.2835,242.7847,271.6588,252.1953" style="stroke:#000000;stroke-width:1.0;"/><text fill="#000000" font-family="sans-serif" font-size="13" lengthAdjust="spacing" textLength="10" x="281.5" y="252.6494">is</text><text fill="#000000" font-family="sans-serif" font-size="13" lengthAdjust="spacing" textLength="7" x="268.8579" y="198.5119">1</text><text fill="#000000" font-family="sans-serif" font-size="13" lengthAdjust="spacing" textLength="7" x="244.1397" y="324.264">1</text></g><!--link Role to SystemAdministrator--><g id="link_Role_SystemAdministrator"><path codeLine="129" d="M114.52,111.6211 C142.74,111.6211 183.76,111.6211 218.66,111.6211 " fill="none" id="Role-SystemAdministrator" style="stroke:#181818;stroke-width:1.0;"/><polygon fill="#000000" points="148.75,99.2666,157.7951,102.2055,157.7951,96.3277,148.75,99.2666" style="stroke:#000000;stroke-width:1.0;"/><text fill="#000000" font-family="sans-serif" font-size="13" lengthAdjust="spacing" textLength="21" x="162.75" y="104.6494">has</text><text fill="#000000" font-family="sans-serif" font-size="13" lengthAdjust="spacing" textLength="7" x="122.7275" y="106.7954">1</text><text fill="#000000" font-family="sans-serif" font-size="13" lengthAdjust="spacing" textLength="7" x="203.8572" y="107.7506">1</text></g><!--link Owner to Address--><g id="link_Owner_Address"><path codeLine="132" d="M138.02,609.6211 C194.1,609.6211 272.43,609.6211 315.67,609.6211 " fill="none" id="Owner-Address" style="stroke:#181818;stroke-width:1.0;"/><polygon fill="#000000" points="219,597.2666,209.9549,594.3277,209.9549,600.2055,219,597.2666" style="stroke:#000000;stroke-width:1.0;"/><text fill="#000000" font-family="sans-serif" font-size="13" lengthAdjust="spacing" textLength="21" x="223" y="602.6494">has</text><text fill="#000000" font-family="sans-serif" font-size="13" lengthAdjust="spacing" textLength="7" x="146.0004" y="605.6992">1</text><text fill="#000000" font-family="sans-serif" font-size="13" lengthAdjust="spacing" textLength="7" x="300.9416" y="604.8518">1</text></g><!--link SystemAdministrator to Address--><g id="link_SystemAdministrator_Address"><path codeLine="133" d="M297.1,176.8011 C309.25,252.7211 328.83,383.0211 339.5,495.6211 C340.99,511.3811 342.34,528.4011 343.48,544.3411 " fill="none" id="SystemAdministrator-Address" style="stroke:#181818;stroke-width:1.0;"/><polygon fill="#000000" points="321.126,301.2273,322.9094,291.8854,317.0778,292.6213,321.126,301.2273" style="stroke:#000000;stroke-width:1.0;"/><text fill="#000000" font-family="sans-serif" font-size="13" lengthAdjust="spacing" textLength="21" x="329.5" y="301.6494">has</text><text fill="#000000" font-family="sans-serif" font-size="13" lengthAdjust="spacing" textLength="7" x="290.8322" y="198.4568">1</text><text fill="#000000" font-family="sans-serif" font-size="13" lengthAdjust="spacing" textLength="7" x="335.6575" y="533.3306">1</text></g><!--link CompanyEmployee to Address--><g id="link_CompanyEmployee_Address"><path codeLine="134" d="M271.55,465.7011 C285.69,492.3011 301.99,522.9811 315.86,549.0811 " fill="none" id="CompanyEmployee-Address" style="stroke:#181818;stroke-width:1.0;"/><polygon fill="#000000" points="302.8464,509.6819,301.197,500.3154,296.0065,503.0737,302.8464,509.6819" style="stroke:#000000;stroke-width:1.0;"/><text fill="#000000" font-family="sans-serif" font-size="13" lengthAdjust="spacing" textLength="21" x="309.5" y="510.6494">has</text><text fill="#000000" font-family="sans-serif" font-size="13" lengthAdjust="spacing" textLength="7" x="267.7005" y="487.3465">1</text><text fill="#000000" font-family="sans-serif" font-size="13" lengthAdjust="spacing" textLength="7" x="302.3811" y="533.4322">1</text></g><!--reverse link CompanyEmployee to Agent--><g id="link_CompanyEmployee_Agent"><path codeLine="137" d="M237.5,486.0111 C237.5,574.2211 237.5,706.2611 237.5,753.5211 " fill="none" id="CompanyEmployee-backto-Agent" style="stroke:#181818;stroke-width:1.0;"/><polygon fill="none" points="230.5,485.9811,237.5,465.9811,244.5,485.9811,230.5,485.9811" style="stroke:#181818;stroke-width:1.0;"/></g><!--reverse link Property to Residence--><g id="link_Property_Residence"><path codeLine="138" d="M388.33,1151.6611 C378.08,1172.2111 367.22,1193.9911 358.03,1212.4311 " fill="none" id="Property-backto-Residence" style="stroke:#181818;stroke-width:1.0;"/><polygon fill="none" points="382.12,1148.4211,397.31,1133.6511,394.65,1154.6711,382.12,1148.4211" style="stroke:#181818;stroke-width:1.0;"/></g><!--reverse link Residence to House--><g id="link_Residence_House"><path codeLine="139" d="M292.1,1321.2611 C277.6,1341.8511 261.72,1364.4011 248.27,1383.5011 " fill="none" id="Residence-backto-House" style="stroke:#181818;stroke-width:1.0;"/><polygon fill="none" points="286.37,1317.2311,303.61,1304.9111,297.82,1325.2911,286.37,1317.2311" style="stroke:#181818;stroke-width:1.0;"/></g><!--SRC=[fLLDRzim3BthLmYv11YMehq6nO2iBR0TjXND-WCKYR65wiELPBIfr_y-oh9b9tO33BiOilJuI3vIb7-IfcAEQQgjiRnqLWCDhWRYyqd5-1ChO1iE2gW37fWfr1ZWIoRiYpG5tJFbWIo78oKDX4C5rBfGMh9Ki0yqMEfaKGOgPAIJrep8k6BURq9mSbS7-CwjsSete9Uab08ebuwZxtQj0Ic59oJ8W97TMisaeJ-i04N8ikMXzug5lNMQDcH9wKg0vqvMhSlbEo49j3tu07eZj3JI1yU2TOWtJ0C1v5I4o_06veOvyRFMEt0aiDTkLPNMGBT-x_WUZOC2cS21UFJWckpfruk1p8siyYFQvFUOlEEuiRfYvj1CTkvqfUm1uF_eDq8uyBuXg0H0Y3G78g8kaWVSP078cwnkKER1wC4gTElm-nkBFI8hm0Gw2lK1dclmSOjWPL5h7cvhL3mMv3IVhuuPNZO4YoOBap3AyhGuay6zinMuW0en1smmYKaW8v0AKna7Z_m2yA0XEn3EMkt9ZeKohR0hiJUBBTu2y8FHDrlxQC0yQCmHlUnHdThSlLRMrmwcuKHb6lGz_EM6wLH923VyPC3TSoshwAVfT-vB6spXM5NchIrJi376rfYAJhgBMAttGLOjlKSfy6GlNq5iD883mO0uul6EnwX9QjB5rOAkLYkwkBou-BJ8XLjJZg86yFGBEQhJ6GCiDDxCQD5ljbYS6MRLBdk9FiP6t9WsghEcSYQAv3tnTaSj49s1G7ZlwuHtNAMEEFT5XYRkN8mrBTayiEFCDUgHv7GqP0kQk1Tz70iKxeMPuEEqz01ed2xJSIo3oimmTNXhwt8UEDJl69VqwZjaJGNiSNZFu5g-IREjQLNlbFGbJ8g7CNo-cZNP0SS79nfC3ZlBqwYIZYSJxnWywWRKqBedJ_49-2ShZMeMAH6SQLDWfaW1NHCozuRa6v4aczhslT0AS9PWpbgUDOilRR9iKyWTEBxUxRSR-1dn8UCiUbRJUIYPWA__nEpQzXhkPTmSPlBeShK7xTn5ghy0]--></g></svg>